<svg xmlns="http://www.w3.org/2000/svg" viewBox="0 0 800 800"><defs><style>.a{fill:#f4b983;}.a,.b,.c,.d,.e,.f,.g,.h,.i,.j,.k,.l,.m,.n,.o,.p,.q,.r,.s,.t,.u,.v,.w,.x,.y,.z{stroke:#f2f2f2;}.a,.aa,.b,.c,.d,.e,.f,.g,.h,.i,.j,.k,.l,.m,.n,.o,.p,.q,.r,.s,.t,.u,.v,.w,.x,.y,.z{stroke-miterlimit:10;}.a,.b,.c,.d,.e,.f,.g,.h,.i,.j,.k,.l,.m,.n,.o,.p,.q,.r,.s,.t,.u,.v,.w,.x,.y{stroke-width:0.5px;}.b{fill:#99caaf;}.c{fill:#e4c0be;}.d{fill:#b2d0eb;}.e{fill:#d7c7e3;}.f{fill:#b090c6;}.g{fill:#f0a25a;}.h{fill:#77b894;}.i{fill:#d6a09d;}.j{fill:#65a1d7;}.k{fill:#55a679;}.l{fill:#3f8acd;}.m{fill:#ec8b31;}.n{fill:#bb615c;}.o{fill:#9c74b8;}.p{fill:#b16825;}.q{fill:#75578a;}.r{fill:#8c4945;}.s{fill:#2f689a;}.t{fill:#407d5b;}.u{fill:#4e3a5c;}.v{fill:#204567;}.w{fill:#764619;}.x{fill:#2b533d;}.y{fill:#5e312e;}.z{fill:none;}.aa{fill:#fff;stroke:#fff;}.ab{isolation:isolate;}.ac{fill:#4d4d4d;}.ad{fill:#666;}</style></defs><polygon class="a" points="113.85 583.29 71.41 452.68 85.77 316.1 85.77 316.09 50.87 304.76 34.92 456.52 82.07 601.64 184.18 715.04 205.71 685.31 113.85 583.29"/><polygon class="b" points="534.21 116.44 645.31 197.16 713.96 316.07 748.88 304.76 672.58 172.61 549.13 82.92 399.88 51.19 399.88 87.89 534.21 116.44"/><polygon class="c" points="154.44 197.16 265.54 116.44 399.88 87.89 399.88 51.19 250.62 82.92 127.17 172.61 50.87 304.76 85.77 316.09 154.44 197.16"/><polygon class="d" points="748.88 304.76 713.96 316.07 713.98 316.1 728.34 452.68 685.9 583.29 594 685.35 593.98 685.36 615.57 715.04 717.68 601.64 764.83 456.52 748.88 304.76"/><polygon class="e" points="468.54 741.21 331.21 741.21 205.75 685.35 205.71 685.31 184.18 715.04 323.58 777.11 476.17 777.11 615.57 715.04 593.98 685.36 468.54 741.21"/><polygon class="e" points="460.91 705.32 338.84 705.32 227.32 655.66 227.25 655.59 205.71 685.31 205.75 685.35 331.21 741.21 468.54 741.21 593.98 685.36 572.39 655.68 460.91 705.32"/><polygon class="c" points="181.71 221.72 280.47 149.97 399.88 124.58 399.88 87.89 265.54 116.44 154.44 197.16 85.77 316.09 120.68 327.42 181.71 221.72"/><polygon class="a" points="145.63 564.95 107.91 448.85 120.67 327.44 120.68 327.42 85.77 316.09 85.77 316.1 71.41 452.68 113.85 583.29 205.71 685.31 227.25 655.59 145.63 564.95"/><polygon class="b" points="534.21 116.44 399.88 87.89 399.88 124.58 519.28 149.97 618.04 221.72 679.04 327.37 713.96 316.07 645.31 197.16 534.21 116.44"/><polygon class="d" points="679.08 327.44 691.84 448.85 654.12 564.95 572.43 655.66 572.39 655.68 593.98 685.36 594 685.35 685.9 583.29 728.34 452.68 713.98 316.1 713.96 316.07 679.04 327.37 679.08 327.44"/><polygon class="f" points="453.28 669.42 346.47 669.42 248.89 625.98 248.78 625.86 227.25 655.59 227.32 655.66 338.84 705.32 460.91 705.32 572.39 655.68 550.8 626 453.28 669.42"/><polygon class="g" points="177.41 546.6 144.41 445.01 155.57 338.78 155.59 338.75 120.68 327.42 120.67 327.44 107.91 448.85 145.63 564.95 227.25 655.59 248.78 625.86 177.41 546.6"/><polygon class="h" points="504.36 183.49 590.77 246.27 644.12 338.68 679.04 327.37 618.04 221.72 519.28 149.97 399.88 124.58 399.88 161.28 504.36 183.49"/><polygon class="i" points="181.71 221.72 120.68 327.42 155.59 338.75 208.98 246.27 295.39 183.49 399.88 161.28 399.88 124.58 280.47 149.97 181.71 221.72"/><polygon class="j" points="644.18 338.78 655.34 445.01 622.34 546.6 550.86 625.98 550.8 626 572.39 655.68 572.43 655.66 654.12 564.95 691.84 448.85 679.08 327.44 679.04 327.37 644.12 338.68 644.18 338.78"/><polygon class="h" points="489.43 217.01 563.5 270.83 609.2 349.99 644.12 338.68 590.77 246.27 504.36 183.49 399.88 161.28 399.88 197.98 489.43 217.01"/><polygon class="f" points="445.65 633.53 354.1 633.53 270.46 596.29 270.31 596.13 248.78 625.86 248.89 625.98 346.47 669.42 453.28 669.42 550.8 626 529.21 596.33 445.65 633.53"/><polygon class="j" points="609.28 350.12 618.85 441.17 590.56 528.25 529.29 596.29 529.21 596.33 550.8 626 550.86 625.98 622.34 546.6 655.34 445.01 644.18 338.78 644.12 338.68 609.2 349.99 609.28 350.12"/><polygon class="i" points="236.25 270.83 310.32 217.01 399.88 197.98 399.88 161.28 295.39 183.49 208.98 246.27 155.59 338.75 190.49 350.09 236.25 270.83"/><polygon class="g" points="144.41 445.01 177.41 546.6 248.78 625.86 270.31 596.13 209.19 528.25 180.9 441.17 190.47 350.12 190.49 350.09 155.59 338.75 155.57 338.78 144.41 445.01"/><polygon class="k" points="474.5 250.54 536.23 295.38 574.28 361.29 609.2 349.99 563.5 270.83 489.43 217.01 399.88 197.98 399.88 234.68 474.5 250.54"/><polygon class="l" points="574.38 361.46 582.35 437.34 558.78 509.9 507.72 566.6 507.62 566.65 529.21 596.33 529.29 596.29 590.56 528.25 618.85 441.17 609.28 350.12 609.2 349.99 574.28 361.29 574.38 361.46"/><polygon class="m" points="240.97 509.9 217.4 437.34 225.37 361.46 225.4 361.42 190.49 350.09 190.47 350.12 180.9 441.17 209.19 528.25 270.31 596.13 291.85 566.4 240.97 509.9"/><polygon class="n" points="263.52 295.38 325.25 250.54 399.88 234.68 399.88 197.98 310.32 217.01 236.25 270.83 190.49 350.09 225.4 361.42 263.52 295.38"/><polygon class="o" points="354.1 633.53 445.65 633.53 529.21 596.33 507.62 566.65 438.02 597.63 361.73 597.63 292.03 566.6 291.85 566.4 270.31 596.13 270.46 596.29 354.1 633.53"/><polygon class="k" points="459.58 284.06 508.96 319.94 539.36 372.6 574.28 361.29 536.23 295.38 474.5 250.54 399.88 234.68 399.88 271.37 459.58 284.06"/><polygon class="n" points="290.79 319.94 340.17 284.06 399.88 271.37 399.88 234.68 325.25 250.54 263.52 295.38 225.4 361.42 260.3 372.75 290.79 319.94"/><polygon class="o" points="430.39 561.74 369.36 561.74 313.6 536.91 313.38 536.68 291.85 566.4 292.03 566.6 361.73 597.63 438.02 597.63 507.62 566.65 486.03 536.97 430.39 561.74"/><polygon class="m" points="272.75 491.55 253.89 433.5 260.27 372.8 260.3 372.75 225.4 361.42 225.37 361.46 217.4 437.34 240.97 509.9 291.85 566.4 313.38 536.68 272.75 491.55"/><polygon class="l" points="558.78 509.9 582.35 437.34 574.38 361.46 574.28 361.29 539.36 372.6 539.48 372.8 545.86 433.5 527 491.55 486.15 536.91 486.03 536.97 507.62 566.65 507.72 566.6 558.78 509.9"/><polygon class="p" points="304.53 473.2 290.39 429.67 295.17 384.14 295.21 384.08 260.3 372.75 260.27 372.8 253.89 433.5 272.75 491.55 313.38 536.68 334.92 506.95 304.53 473.2"/><polygon class="q" points="422.76 525.84 376.99 525.84 335.17 507.22 334.92 506.95 313.38 536.68 313.6 536.91 369.36 561.74 430.39 561.74 486.03 536.97 464.44 507.29 422.76 525.84"/><polygon class="r" points="318.06 344.49 355.1 317.59 399.88 308.07 399.88 271.37 340.17 284.06 290.79 319.94 260.3 372.75 295.21 384.08 318.06 344.49"/><polygon class="s" points="504.58 384.14 509.36 429.67 495.22 473.2 464.58 507.22 464.44 507.29 486.03 536.97 486.15 536.91 527 491.55 545.86 433.5 539.48 372.8 539.36 372.6 504.44 383.9 504.58 384.14"/><polygon class="t" points="459.58 284.06 399.88 271.37 399.88 308.07 444.65 317.59 481.69 344.49 504.44 383.9 539.36 372.6 508.96 319.94 459.58 284.06"/><polygon class="q" points="415.13 489.95 384.62 489.95 356.74 477.54 356.45 477.22 334.92 506.95 335.17 507.22 376.99 525.84 422.76 525.84 464.44 507.29 442.85 477.61 415.13 489.95"/><polygon class="s" points="469.68 395.48 472.87 425.83 463.44 454.86 443.01 477.54 442.85 477.61 464.44 507.29 464.58 507.22 495.22 473.2 509.36 429.67 504.58 384.14 504.44 383.9 469.52 395.21 469.68 395.48"/><polygon class="p" points="336.31 454.86 326.88 425.83 330.07 395.48 330.11 395.41 295.21 384.08 295.17 384.14 290.39 429.67 304.53 473.2 334.92 506.95 356.45 477.22 336.31 454.86"/><polygon class="t" points="429.73 351.11 454.42 369.05 469.52 395.21 504.44 383.9 481.69 344.49 444.65 317.59 399.88 308.07 399.88 344.76 429.73 351.11"/><polygon class="r" points="318.06 344.49 295.21 384.08 330.11 395.41 345.33 369.05 370.02 351.11 399.88 344.76 399.88 308.07 355.1 317.59 318.06 344.49"/><polygon class="u" points="407.5 454.05 392.25 454.05 378.31 447.85 377.99 447.49 356.45 477.22 356.74 477.54 384.62 489.95 415.13 489.95 442.85 477.61 421.25 447.93 407.5 454.05"/><polygon class="v" points="434.77 406.82 436.37 421.99 431.65 436.51 421.44 447.85 421.25 447.93 442.85 477.61 443.01 477.54 463.44 454.86 472.87 425.83 469.68 395.48 469.52 395.21 434.6 406.52 434.77 406.82"/><polygon class="w" points="326.88 425.83 336.31 454.86 356.45 477.22 377.99 447.49 368.1 436.51 363.38 421.99 364.97 406.82 365.02 406.74 330.11 395.41 330.07 395.48 326.88 425.83"/><polygon class="x" points="414.8 384.63 427.15 393.6 434.6 406.52 469.52 395.21 454.42 369.05 429.73 351.11 399.88 344.76 399.88 381.46 414.8 384.63"/><polygon class="y" points="372.6 393.6 384.95 384.63 399.88 381.46 399.88 344.76 370.02 351.11 345.33 369.05 330.11 395.41 365.02 406.74 372.6 393.6"/><polygon class="u" points="392.25 454.05 407.5 454.05 421.25 447.93 399.42 417.91 377.99 447.49 378.31 447.85 392.25 454.05"/><polygon class="v" points="399.88 417.91 399.88 417.76 399.42 417.91 421.25 447.93 421.44 447.85 431.65 436.51 436.37 421.99 434.77 406.82 434.6 406.52 399.88 417.76 399.88 417.91"/><polygon class="x" points="434.6 406.52 427.15 393.6 414.8 384.63 399.88 381.46 399.88 417.76 434.6 406.52"/><polygon class="y" points="399.88 417.76 399.88 381.46 384.95 384.63 372.6 393.6 365.02 406.74 399.42 417.91 399.88 417.76"/><polygon class="w" points="365.02 406.74 364.97 406.82 363.38 421.99 368.1 436.51 377.99 447.49 399.42 417.91 365.02 406.74"/><line class="z" x1="250.62" y1="82.92" x2="399.42" y2="417.91"/><line class="z" x1="549.13" y1="82.92" x2="399.42" y2="417.91"/><line class="z" x1="672.58" y1="172.61" x2="399.42" y2="417.91"/><line class="z" x1="748.88" y1="304.76" x2="399.42" y2="417.91"/><line class="z" x1="764.83" y1="456.52" x2="399.42" y2="417.91"/><line class="z" x1="717.68" y1="601.64" x2="399.42" y2="417.91"/><line class="z" x1="615.57" y1="715.04" x2="399.42" y2="417.91"/><line class="z" x1="476.17" y1="777.11" x2="399.42" y2="417.91"/><line class="z" x1="323.58" y1="777.11" x2="399.42" y2="417.91"/><line class="z" x1="184.18" y1="715.04" x2="399.42" y2="417.91"/><line class="z" x1="82.07" y1="601.64" x2="399.42" y2="417.91"/><line class="z" x1="34.92" y1="456.52" x2="399.42" y2="417.91"/><line class="z" x1="50.87" y1="304.76" x2="399.42" y2="417.91"/><line class="z" x1="127.17" y1="172.61" x2="399.42" y2="417.91"/><line class="z" x1="399.87" y1="51.19" x2="399.87" y2="417.91"/><line class="z" x1="652.57" y1="765.24" x2="399.42" y2="417.91"/><rect class="aa" x="386.45" y="80.71" width="24.28" height="18.08"/><rect class="aa" x="386.45" y="44.26" width="24.28" height="18.08"/><rect class="aa" x="386.45" y="117.16" width="24.28" height="18.08"/><rect class="aa" x="386.45" y="153.61" width="24.28" height="18.08"/><rect class="aa" x="386.45" y="190.06" width="24.28" height="18.08"/><rect class="aa" x="386.45" y="226.51" width="24.28" height="18.08"/><rect class="aa" x="386.45" y="262.96" width="24.28" height="18.08"/><rect class="aa" x="386.45" y="299.41" width="24.28" height="18.08"/><rect class="aa" x="386.45" y="335.86" width="24.28" height="18.08"/><rect class="aa" x="386.45" y="372.31" width="24.28" height="18.08"/><g class="ab"><path class="ac" d="M391.7,57.88V51.22h-2.58V49.65a4.56,4.56,0,0,0,1.05-.09,2.75,2.75,0,0,0,.91-.33,2.43,2.43,0,0,0,.68-.64,2.24,2.24,0,0,0,.36-1h1.66V57.88Z"/><path class="ac" d="M396.8,50.18a4.5,4.5,0,0,1,.82-1.64,3,3,0,0,1,1.19-.88,4.2,4.2,0,0,1,2.91,0,3.06,3.06,0,0,1,1.2.88,4.5,4.5,0,0,1,.82,1.64,9.06,9.06,0,0,1,.3,2.52,9.34,9.34,0,0,1-.3,2.57,4.52,4.52,0,0,1-.82,1.66,3.06,3.06,0,0,1-1.2.88,4.2,4.2,0,0,1-2.91,0,3,3,0,0,1-1.19-.88,4.52,4.52,0,0,1-.82-1.66,9.34,9.34,0,0,1-.3-2.57A9.06,9.06,0,0,1,396.8,50.18Zm1.81,3.58A5.36,5.36,0,0,0,398.8,55a2.56,2.56,0,0,0,.49,1,1.19,1.19,0,0,0,1,.41,1.23,1.23,0,0,0,1-.41,2.72,2.72,0,0,0,.5-1,6,6,0,0,0,.18-1.21c0-.41,0-.77,0-1.06s0-.39,0-.64a5.09,5.09,0,0,0-.06-.77,7.27,7.27,0,0,0-.14-.79,2.51,2.51,0,0,0-.29-.69,1.54,1.54,0,0,0-.48-.5,1.29,1.29,0,0,0-.72-.19,1.27,1.27,0,0,0-.72.19,1.39,1.39,0,0,0-.46.5,2.51,2.51,0,0,0-.29.69,5.49,5.49,0,0,0-.15.79c0,.26,0,.52-.05.77s0,.46,0,.64S398.59,53.35,398.61,53.76Z"/><path class="ac" d="M405,50.18a4.5,4.5,0,0,1,.82-1.64,3,3,0,0,1,1.19-.88,4.2,4.2,0,0,1,2.91,0,3,3,0,0,1,1.2.88,4.67,4.67,0,0,1,.83,1.64,9.06,9.06,0,0,1,.3,2.52,9.34,9.34,0,0,1-.3,2.57,4.69,4.69,0,0,1-.83,1.66,3,3,0,0,1-1.2.88,4.2,4.2,0,0,1-2.91,0,3,3,0,0,1-1.19-.88,4.52,4.52,0,0,1-.82-1.66,9.34,9.34,0,0,1-.3-2.57A9.06,9.06,0,0,1,405,50.18Zm1.81,3.58A6,6,0,0,0,407,55a2.56,2.56,0,0,0,.49,1,1.19,1.19,0,0,0,1,.41,1.23,1.23,0,0,0,1-.41,2.57,2.57,0,0,0,.5-1,6,6,0,0,0,.18-1.21c0-.41,0-.77,0-1.06s0-.39,0-.64a6.78,6.78,0,0,0-.05-.77c0-.26-.09-.53-.15-.79a2.51,2.51,0,0,0-.29-.69,1.44,1.44,0,0,0-.48-.5,1.29,1.29,0,0,0-.72-.19,1.21,1.21,0,0,0-.71.19,1.41,1.41,0,0,0-.47.5,2.51,2.51,0,0,0-.29.69,5.49,5.49,0,0,0-.15.79c0,.26,0,.52-.05.77v.64C406.75,53,406.75,53.35,406.77,53.76Z"/></g><g class="ab"><path class="ac" d="M394.49,92.67a1.17,1.17,0,0,0,.91.38,1.32,1.32,0,0,0,.93-.33,2.25,2.25,0,0,0,.59-.8,4.33,4.33,0,0,0,.32-1c.06-.36.1-.69.12-1l0,0a2.45,2.45,0,0,1-1,.88A3.05,3.05,0,0,1,395,91a3.09,3.09,0,0,1-1.29-.28,3.23,3.23,0,0,1-1.07-.77,3.14,3.14,0,0,1-.6-1.07,4,4,0,0,1-.19-1.22,4.22,4.22,0,0,1,.25-1.48,3.49,3.49,0,0,1,1.88-2,3.66,3.66,0,0,1,1.46-.29,3.61,3.61,0,0,1,1.93.46,3.65,3.65,0,0,1,1.22,1.22,5.13,5.13,0,0,1,.63,1.71,11.32,11.32,0,0,1,.17,1.92,8.23,8.23,0,0,1-.22,1.91,5.52,5.52,0,0,1-.7,1.73,3.8,3.8,0,0,1-1.25,1.24,3.43,3.43,0,0,1-1.86.48,4.18,4.18,0,0,1-1.24-.18A2.92,2.92,0,0,1,392.4,93a3.67,3.67,0,0,1-.37-1.2h2A1.65,1.65,0,0,0,394.49,92.67Zm1.76-3.35a1.48,1.48,0,0,0,.51-.42,1.85,1.85,0,0,0,.31-.61,2.46,2.46,0,0,0,.1-.72,2.09,2.09,0,0,0-.11-.7,1.92,1.92,0,0,0-.32-.62,1.66,1.66,0,0,0-.52-.43,1.49,1.49,0,0,0-.71-.16,1.34,1.34,0,0,0-.66.16,1.62,1.62,0,0,0-.8,1,2.26,2.26,0,0,0-.11.69,2.44,2.44,0,0,0,.1.71,2,2,0,0,0,.28.61,1.52,1.52,0,0,0,.5.44,1.31,1.31,0,0,0,.69.17A1.68,1.68,0,0,0,396.25,89.32Z"/><path class="ac" d="M400.32,86.72a4.66,4.66,0,0,1,.81-1.64,3.06,3.06,0,0,1,1.2-.88,4.2,4.2,0,0,1,2.91,0,3.06,3.06,0,0,1,1.2.88,4.5,4.5,0,0,1,.82,1.64,9.06,9.06,0,0,1,.3,2.52,9.34,9.34,0,0,1-.3,2.57,4.52,4.52,0,0,1-.82,1.66,3.06,3.06,0,0,1-1.2.88,4.2,4.2,0,0,1-2.91,0,3.06,3.06,0,0,1-1.2-.88,4.68,4.68,0,0,1-.81-1.66,9.34,9.34,0,0,1-.3-2.57A9.06,9.06,0,0,1,400.32,86.72Zm1.81,3.58a5.36,5.36,0,0,0,.19,1.21,2.56,2.56,0,0,0,.49,1,1.19,1.19,0,0,0,1,.41,1.23,1.23,0,0,0,1-.41,2.72,2.72,0,0,0,.5-1,6,6,0,0,0,.18-1.21c0-.41,0-.77,0-1.06s0-.39,0-.64a5.09,5.09,0,0,0-.06-.77,7.27,7.27,0,0,0-.14-.79,2.51,2.51,0,0,0-.29-.69,1.54,1.54,0,0,0-.48-.5,1.29,1.29,0,0,0-.72-.19,1.21,1.21,0,0,0-.71.19,1.33,1.33,0,0,0-.47.5,2.51,2.51,0,0,0-.29.69,5.49,5.49,0,0,0-.15.79c0,.26,0,.52-.05.77s0,.46,0,.64S402.11,89.89,402.13,90.3Z"/></g><g class="ab"><path class="ac" d="M392.49,122.06a2.8,2.8,0,0,1,.8-.88,3.54,3.54,0,0,1,1.11-.52,4.39,4.39,0,0,1,1.25-.18,4.06,4.06,0,0,1,1.61.29,3.4,3.4,0,0,1,1.06.72,2.36,2.36,0,0,1,.58.89,2.45,2.45,0,0,1,.18.86,2.41,2.41,0,0,1-.37,1.34,2.11,2.11,0,0,1-1.13.82v0a2.31,2.31,0,0,1,1.43.87,2.69,2.69,0,0,1,.5,1.64,2.92,2.92,0,0,1-.33,1.42,3.13,3.13,0,0,1-.88,1,3.89,3.89,0,0,1-1.23.59,5.16,5.16,0,0,1-1.41.2,5.82,5.82,0,0,1-1.45-.18,3.93,3.93,0,0,1-1.24-.58,3,3,0,0,1-.88-1,3,3,0,0,1-.33-1.44,2.58,2.58,0,0,1,.5-1.64,2.44,2.44,0,0,1,1.43-.88v0a1.94,1.94,0,0,1-1.13-.78,2.39,2.39,0,0,1-.38-1.34A2.36,2.36,0,0,1,392.49,122.06Zm1.5,6.51a1.53,1.53,0,0,0,.39.55,1.61,1.61,0,0,0,.58.35,2.06,2.06,0,0,0,.7.12,2,2,0,0,0,.7-.12,1.82,1.82,0,0,0,.56-.35,1.62,1.62,0,0,0,.37-.55,1.83,1.83,0,0,0,.13-.71,1.59,1.59,0,0,0-.14-.66,1.56,1.56,0,0,0-.38-.53,1.84,1.84,0,0,0-.56-.33,1.91,1.91,0,0,0-.68-.12,2,2,0,0,0-1.29.42,1.46,1.46,0,0,0-.53,1.21A1.72,1.72,0,0,0,394,128.57Zm.55-4.09a1.83,1.83,0,0,0,1.11.34,1.74,1.74,0,0,0,1.1-.34,1.22,1.22,0,0,0,.44-1,1.85,1.85,0,0,0-.06-.44,1.29,1.29,0,0,0-.23-.47,1.25,1.25,0,0,0-.47-.36,1.75,1.75,0,0,0-.78-.15,1.72,1.72,0,0,0-.6.1,1.56,1.56,0,0,0-.51.27,1.16,1.16,0,0,0-.34.44,1.44,1.44,0,0,0-.13.61A1.19,1.19,0,0,0,394.54,124.48Z"/><path class="ac" d="M400.32,123.26a4.66,4.66,0,0,1,.81-1.64,3.06,3.06,0,0,1,1.2-.88,4.2,4.2,0,0,1,2.91,0,3.06,3.06,0,0,1,1.2.88,4.5,4.5,0,0,1,.82,1.64,9.06,9.06,0,0,1,.3,2.52,9.29,9.29,0,0,1-.3,2.57,4.52,4.52,0,0,1-.82,1.66,3.06,3.06,0,0,1-1.2.88,4.2,4.2,0,0,1-2.91,0,3.06,3.06,0,0,1-1.2-.88,4.68,4.68,0,0,1-.81-1.66,9.29,9.29,0,0,1-.3-2.57A9.06,9.06,0,0,1,400.32,123.26Zm1.81,3.58a5.36,5.36,0,0,0,.19,1.21,2.56,2.56,0,0,0,.49,1,1.19,1.19,0,0,0,1,.41,1.23,1.23,0,0,0,1-.41,2.72,2.72,0,0,0,.5-1,6,6,0,0,0,.18-1.21c0-.41,0-.77,0-1.06s0-.39,0-.64a5.09,5.09,0,0,0-.06-.77,7.27,7.27,0,0,0-.14-.79,2.51,2.51,0,0,0-.29-.69,1.54,1.54,0,0,0-.48-.5,1.29,1.29,0,0,0-.72-.19,1.21,1.21,0,0,0-.71.19,1.33,1.33,0,0,0-.47.5,2.51,2.51,0,0,0-.29.69,5.49,5.49,0,0,0-.15.79c0,.26,0,.52-.05.77s0,.46,0,.64S402.11,126.43,402.13,126.84Z"/></g><g class="ab"><path class="ac" d="M397.71,160.74a11.2,11.2,0,0,0-1,2.18,15.51,15.51,0,0,0-.65,2.35,13.16,13.16,0,0,0-.24,2.22h-2.23a13.82,13.82,0,0,1,1.07-4.43,16.11,16.11,0,0,1,2.38-3.91h-4.88v-1.94h7V159A7,7,0,0,0,397.71,160.74Z"/><path class="ac" d="M400.32,159.79a4.66,4.66,0,0,1,.81-1.64,3.06,3.06,0,0,1,1.2-.88,4.2,4.2,0,0,1,2.91,0,3.06,3.06,0,0,1,1.2.88,4.5,4.5,0,0,1,.82,1.64,9.06,9.06,0,0,1,.3,2.52,9.29,9.29,0,0,1-.3,2.57,4.52,4.52,0,0,1-.82,1.66,3.06,3.06,0,0,1-1.2.88,4.2,4.2,0,0,1-2.91,0,3.06,3.06,0,0,1-1.2-.88,4.68,4.68,0,0,1-.81-1.66,9.29,9.29,0,0,1-.3-2.57A9.06,9.06,0,0,1,400.32,159.79Zm1.81,3.58a5.36,5.36,0,0,0,.19,1.21,2.56,2.56,0,0,0,.49,1,1.19,1.19,0,0,0,1,.41,1.23,1.23,0,0,0,1-.41,2.72,2.72,0,0,0,.5-1,6,6,0,0,0,.18-1.21c0-.41,0-.77,0-1.06s0-.39,0-.64a5.09,5.09,0,0,0-.06-.77,7.27,7.27,0,0,0-.14-.79,2.51,2.51,0,0,0-.29-.69,1.54,1.54,0,0,0-.48-.5,1.29,1.29,0,0,0-.72-.19,1.21,1.21,0,0,0-.71.19,1.33,1.33,0,0,0-.47.5,2.51,2.51,0,0,0-.29.69,5.49,5.49,0,0,0-.15.79c0,.26,0,.52-.05.77s0,.46,0,.64S402.11,163,402.13,163.37Z"/></g><g class="ab"><path class="ac" d="M396.78,195.5a1.24,1.24,0,0,0-.91-.38,1.37,1.37,0,0,0-.94.33,2.42,2.42,0,0,0-.59.81,3.91,3.91,0,0,0-.32,1,6.24,6.24,0,0,0-.12,1l0,0a2.38,2.38,0,0,1,1-.88,3.05,3.05,0,0,1,1.32-.27,3.11,3.11,0,0,1,1.29.29,3.23,3.23,0,0,1,1.07.77,3.05,3.05,0,0,1,.6,1.07,3.93,3.93,0,0,1,.19,1.22,4.13,4.13,0,0,1-.25,1.47,3.62,3.62,0,0,1-.74,1.19,3.38,3.38,0,0,1-1.14.79,3.49,3.49,0,0,1-1.46.29,3.65,3.65,0,0,1-1.93-.46,3.59,3.59,0,0,1-1.21-1.21,5,5,0,0,1-.64-1.7,11.17,11.17,0,0,1-.17-1.93,8.36,8.36,0,0,1,.22-1.91,5.71,5.71,0,0,1,.7-1.72A4.17,4.17,0,0,1,394,194a3.43,3.43,0,0,1,1.86-.48,3.84,3.84,0,0,1,1.24.19,3.18,3.18,0,0,1,1,.55,3,3,0,0,1,.72.89,3.49,3.49,0,0,1,.37,1.22h-2A1.82,1.82,0,0,0,396.78,195.5ZM395,198.86a1.5,1.5,0,0,0-.52.41,1.85,1.85,0,0,0-.31.61,2.52,2.52,0,0,0-.1.73,2.43,2.43,0,0,0,.11.7,1.87,1.87,0,0,0,.32.61,1.57,1.57,0,0,0,.52.44,1.61,1.61,0,0,0,.71.16,1.44,1.44,0,0,0,.67-.16,1.67,1.67,0,0,0,.49-.43,2.13,2.13,0,0,0,.31-.6,2.74,2.74,0,0,0,.1-.69,2.39,2.39,0,0,0-.1-.71,2.06,2.06,0,0,0-.28-.62,1.41,1.41,0,0,0-1.19-.61A1.54,1.54,0,0,0,395,198.86Z"/><path class="ac" d="M400.32,196.33a4.66,4.66,0,0,1,.81-1.64,3.06,3.06,0,0,1,1.2-.88,4.2,4.2,0,0,1,2.91,0,3.06,3.06,0,0,1,1.2.88,4.5,4.5,0,0,1,.82,1.64,9.06,9.06,0,0,1,.3,2.52,9.29,9.29,0,0,1-.3,2.57,4.44,4.44,0,0,1-.82,1.66,3.06,3.06,0,0,1-1.2.88,4.2,4.2,0,0,1-2.91,0,3.06,3.06,0,0,1-1.2-.88,4.59,4.59,0,0,1-.81-1.66,9.29,9.29,0,0,1-.3-2.57A9.06,9.06,0,0,1,400.32,196.33Zm1.81,3.58a5.36,5.36,0,0,0,.19,1.21,2.56,2.56,0,0,0,.49,1,1.19,1.19,0,0,0,1,.41,1.23,1.23,0,0,0,1-.41,2.72,2.72,0,0,0,.5-1,6,6,0,0,0,.18-1.21c0-.41,0-.77,0-1.06s0-.39,0-.64a5.09,5.09,0,0,0-.06-.77,7.27,7.27,0,0,0-.14-.79A2.51,2.51,0,0,0,405,196a1.54,1.54,0,0,0-.48-.5,1.29,1.29,0,0,0-.72-.19,1.21,1.21,0,0,0-.71.19,1.33,1.33,0,0,0-.47.5,2.51,2.51,0,0,0-.29.69,5.49,5.49,0,0,0-.15.79c0,.26,0,.52-.05.77s0,.46,0,.64S402.11,199.5,402.13,199.91Z"/></g><g class="ab"><path class="ac" d="M394.65,232l-.41,2.34,0,0a2.4,2.4,0,0,1,.91-.61,2.92,2.92,0,0,1,1.1-.19,3.19,3.19,0,0,1,1.35.28,3.09,3.09,0,0,1,1,.75,3.14,3.14,0,0,1,.61,1.11,4,4,0,0,1,.22,1.36,3.58,3.58,0,0,1-.31,1.47,3.7,3.7,0,0,1-.83,1.18,3.57,3.57,0,0,1-1.21.77,3.62,3.62,0,0,1-1.47.26,4.8,4.8,0,0,1-1.43-.2,3.37,3.37,0,0,1-1.21-.61,3,3,0,0,1-.85-1,3.12,3.12,0,0,1-.33-1.41h2.09a1.68,1.68,0,0,0,.53,1.12,1.77,1.77,0,0,0,1.9.25,1.85,1.85,0,0,0,.56-.44,2.14,2.14,0,0,0,.35-.63,2.34,2.34,0,0,0,.12-.74,2.56,2.56,0,0,0-.11-.75,1.74,1.74,0,0,0-.36-.62,1.54,1.54,0,0,0-.56-.41,1.72,1.72,0,0,0-.74-.15,1.83,1.83,0,0,0-.91.2,2,2,0,0,0-.66.63h-1.88l1-5.69h5.74V232Z"/><path class="ac" d="M400.32,232.86a4.66,4.66,0,0,1,.81-1.64,3.06,3.06,0,0,1,1.2-.88,4.2,4.2,0,0,1,2.91,0,3.06,3.06,0,0,1,1.2.88,4.5,4.5,0,0,1,.82,1.64,9.06,9.06,0,0,1,.3,2.52,9.29,9.29,0,0,1-.3,2.57,4.52,4.52,0,0,1-.82,1.66,3.06,3.06,0,0,1-1.2.88,4.2,4.2,0,0,1-2.91,0,3.06,3.06,0,0,1-1.2-.88,4.68,4.68,0,0,1-.81-1.66,9.29,9.29,0,0,1-.3-2.57A9.06,9.06,0,0,1,400.32,232.86Zm1.81,3.58a5.36,5.36,0,0,0,.19,1.21,2.56,2.56,0,0,0,.49,1,1.19,1.19,0,0,0,1,.41,1.23,1.23,0,0,0,1-.41,2.72,2.72,0,0,0,.5-1,6,6,0,0,0,.18-1.21c0-.41,0-.77,0-1.06s0-.39,0-.64a5.09,5.09,0,0,0-.06-.77,7.27,7.27,0,0,0-.14-.79,2.51,2.51,0,0,0-.29-.69,1.54,1.54,0,0,0-.48-.5,1.29,1.29,0,0,0-.72-.19,1.21,1.21,0,0,0-.71.19,1.33,1.33,0,0,0-.47.5,2.51,2.51,0,0,0-.29.69,5.49,5.49,0,0,0-.15.79c0,.26,0,.52-.05.77s0,.46,0,.64S402.11,236,402.13,236.44Z"/></g><g class="ab"><path class="ac" d="M391.78,274.72v-1.91l4.47-6h1.86V273h1.37v1.72h-1.37v2.38h-2v-2.38Zm4.31-5.28L393.43,273h2.7v-3.56Z"/><path class="ac" d="M400.32,269.4a4.66,4.66,0,0,1,.81-1.64,3.06,3.06,0,0,1,1.2-.88,4.2,4.2,0,0,1,2.91,0,3.06,3.06,0,0,1,1.2.88,4.5,4.5,0,0,1,.82,1.64,9.06,9.06,0,0,1,.3,2.52,9.29,9.29,0,0,1-.3,2.57,4.52,4.52,0,0,1-.82,1.66,3.06,3.06,0,0,1-1.2.88,4.2,4.2,0,0,1-2.91,0,3.06,3.06,0,0,1-1.2-.88,4.68,4.68,0,0,1-.81-1.66,9.29,9.29,0,0,1-.3-2.57A9.06,9.06,0,0,1,400.32,269.4Zm1.81,3.58a5.36,5.36,0,0,0,.19,1.21,2.56,2.56,0,0,0,.49,1,1.19,1.19,0,0,0,1,.41,1.23,1.23,0,0,0,1-.41,2.72,2.72,0,0,0,.5-1,6,6,0,0,0,.18-1.21c0-.41,0-.77,0-1.06s0-.39,0-.64a5.09,5.09,0,0,0-.06-.77,7.27,7.27,0,0,0-.14-.79A2.51,2.51,0,0,0,405,269a1.54,1.54,0,0,0-.48-.5,1.29,1.29,0,0,0-.72-.19,1.21,1.21,0,0,0-.71.19,1.33,1.33,0,0,0-.47.5,2.51,2.51,0,0,0-.29.69,5.49,5.49,0,0,0-.15.79c0,.26,0,.52-.05.77s0,.46,0,.64S402.11,272.57,402.13,273Z"/></g><g class="ab"><path class="ac" d="M395.62,307.51a2.38,2.38,0,0,0,.71-.17,1.37,1.37,0,0,0,.54-.4,1.11,1.11,0,0,0,.21-.71,1.19,1.19,0,0,0-.44-1,1.53,1.53,0,0,0-1-.35,1.42,1.42,0,0,0-1.2.52,2.06,2.06,0,0,0-.38,1.31h-2a4.34,4.34,0,0,1,.29-1.44,3.31,3.31,0,0,1,.72-1.13,3.23,3.23,0,0,1,1.11-.72,3.89,3.89,0,0,1,1.44-.26,4.36,4.36,0,0,1,1.23.18,3.84,3.84,0,0,1,1.11.55,3.28,3.28,0,0,1,.8.9,2.58,2.58,0,0,1-.05,2.54,1.83,1.83,0,0,1-1.08.78v0A2.26,2.26,0,0,1,399,309a2.36,2.36,0,0,1,.49,1.51,3.18,3.18,0,0,1-.32,1.44,3.24,3.24,0,0,1-.84,1.06,3.84,3.84,0,0,1-1.22.64,4.61,4.61,0,0,1-1.44.22,4.68,4.68,0,0,1-1.58-.25,3.22,3.22,0,0,1-1.21-.73,3.15,3.15,0,0,1-.77-1.16,4.15,4.15,0,0,1-.26-1.59h2a2.9,2.9,0,0,0,.13.79,1.87,1.87,0,0,0,.34.64,1.49,1.49,0,0,0,.55.44,1.87,1.87,0,0,0,.78.16,1.72,1.72,0,0,0,1.19-.44,1.77,1.77,0,0,0,.26-2.07,1.28,1.28,0,0,0-.58-.45,2.4,2.4,0,0,0-.77-.16c-.28,0-.55,0-.8,0v-1.47A4.32,4.32,0,0,0,395.62,307.51Z"/><path class="ac" d="M400.32,305.93a4.66,4.66,0,0,1,.81-1.64,3.06,3.06,0,0,1,1.2-.88,4.2,4.2,0,0,1,2.91,0,3.06,3.06,0,0,1,1.2.88,4.5,4.5,0,0,1,.82,1.64,9.06,9.06,0,0,1,.3,2.52,9.34,9.34,0,0,1-.3,2.57,4.52,4.52,0,0,1-.82,1.66,3.06,3.06,0,0,1-1.2.88,4.2,4.2,0,0,1-2.91,0,3.06,3.06,0,0,1-1.2-.88,4.68,4.68,0,0,1-.81-1.66,9.34,9.34,0,0,1-.3-2.57A9.06,9.06,0,0,1,400.32,305.93Zm1.81,3.58a5.36,5.36,0,0,0,.19,1.21,2.56,2.56,0,0,0,.49,1,1.19,1.19,0,0,0,1,.41,1.23,1.23,0,0,0,1-.41,2.72,2.72,0,0,0,.5-1,6,6,0,0,0,.18-1.21c0-.41,0-.77,0-1.06s0-.39,0-.64a5.09,5.09,0,0,0-.06-.77,7.27,7.27,0,0,0-.14-.79,2.51,2.51,0,0,0-.29-.69,1.54,1.54,0,0,0-.48-.5,1.29,1.29,0,0,0-.72-.19,1.21,1.21,0,0,0-.71.19,1.33,1.33,0,0,0-.47.5,2.51,2.51,0,0,0-.29.69,5.49,5.49,0,0,0-.15.79c0,.26,0,.52-.05.77s0,.46,0,.64S402.11,309.1,402.13,309.51Z"/></g><g class="ab"><path class="ac" d="M392.3,342.21a3.79,3.79,0,0,1,.7-1.32,3.38,3.38,0,0,1,1.18-.89,4,4,0,0,1,1.64-.31,4,4,0,0,1,1.34.22,3.66,3.66,0,0,1,1.13.63,3,3,0,0,1,.77,1,3.17,3.17,0,0,1,.28,1.35,3.21,3.21,0,0,1-.25,1.34,3.3,3.3,0,0,1-.66,1,5.54,5.54,0,0,1-.93.79l-1.05.69c-.35.23-.69.48-1,.74a5.18,5.18,0,0,0-.88.93h4.86v1.79h-7.54a4.33,4.33,0,0,1,.25-1.56,4.49,4.49,0,0,1,.7-1.18,6,6,0,0,1,1-1c.39-.29.81-.59,1.25-.89l.72-.48a4.2,4.2,0,0,0,.7-.54,2.85,2.85,0,0,0,.53-.66,1.63,1.63,0,0,0,.21-.83,1.46,1.46,0,0,0-1.54-1.59,1.36,1.36,0,0,0-.77.21,1.62,1.62,0,0,0-.51.56,2.46,2.46,0,0,0-.27.76,4.76,4.76,0,0,0-.08.83h-2A4.8,4.8,0,0,1,392.3,342.21Z"/><path class="ac" d="M400.32,342.47a4.66,4.66,0,0,1,.81-1.64,3.06,3.06,0,0,1,1.2-.88,4.2,4.2,0,0,1,2.91,0,3.06,3.06,0,0,1,1.2.88,4.5,4.5,0,0,1,.82,1.64,9.06,9.06,0,0,1,.3,2.52,9.29,9.29,0,0,1-.3,2.57,4.52,4.52,0,0,1-.82,1.66,3.06,3.06,0,0,1-1.2.88,4.2,4.2,0,0,1-2.91,0,3.06,3.06,0,0,1-1.2-.88,4.68,4.68,0,0,1-.81-1.66A9.29,9.29,0,0,1,400,345,9.06,9.06,0,0,1,400.32,342.47Zm1.81,3.58a5.36,5.36,0,0,0,.19,1.21,2.56,2.56,0,0,0,.49,1,1.19,1.19,0,0,0,1,.41,1.23,1.23,0,0,0,1-.41,2.72,2.72,0,0,0,.5-1,6,6,0,0,0,.18-1.21c0-.41,0-.77,0-1.06s0-.39,0-.64a5.09,5.09,0,0,0-.06-.77,7.27,7.27,0,0,0-.14-.79,2.51,2.51,0,0,0-.29-.69,1.54,1.54,0,0,0-.48-.5,1.29,1.29,0,0,0-.72-.19,1.21,1.21,0,0,0-.71.19,1.33,1.33,0,0,0-.47.5,2.51,2.51,0,0,0-.29.69,5.49,5.49,0,0,0-.15.79c0,.26,0,.52-.05.77s0,.46,0,.64S402.11,345.64,402.13,346.05Z"/></g><g class="ab"><path class="ac" d="M395.22,386.7V380h-2.58v-1.57a4.56,4.56,0,0,0,1.05-.09,2.75,2.75,0,0,0,.91-.33,2.43,2.43,0,0,0,.68-.64,2.38,2.38,0,0,0,.37-1h1.65V386.7Z"/><path class="ac" d="M400.32,379a4.66,4.66,0,0,1,.81-1.64,3.06,3.06,0,0,1,1.2-.88,4.2,4.2,0,0,1,2.91,0,3.06,3.06,0,0,1,1.2.88,4.5,4.5,0,0,1,.82,1.64,9.06,9.06,0,0,1,.3,2.52,9.29,9.29,0,0,1-.3,2.57,4.52,4.52,0,0,1-.82,1.66,3.06,3.06,0,0,1-1.2.88,4.2,4.2,0,0,1-2.91,0,3.06,3.06,0,0,1-1.2-.88,4.68,4.68,0,0,1-.81-1.66,9.29,9.29,0,0,1-.3-2.57A9.06,9.06,0,0,1,400.32,379Zm1.81,3.58a5.36,5.36,0,0,0,.19,1.21,2.56,2.56,0,0,0,.49,1,1.19,1.19,0,0,0,1,.41,1.23,1.23,0,0,0,1-.41,2.72,2.72,0,0,0,.5-1,6,6,0,0,0,.18-1.21c0-.41,0-.77,0-1.06s0-.39,0-.64a5.09,5.09,0,0,0-.06-.77,7.27,7.27,0,0,0-.14-.79,2.51,2.51,0,0,0-.29-.69,1.54,1.54,0,0,0-.48-.5,1.29,1.29,0,0,0-.72-.19,1.21,1.21,0,0,0-.71.19,1.33,1.33,0,0,0-.47.5,2.51,2.51,0,0,0-.29.69,5.49,5.49,0,0,0-.15.79c0,.26,0,.52-.05.77s0,.46,0,.64S402.11,382.17,402.13,382.58Z"/></g><g class="ab"><g class="ab"><path class="ad" d="M580.05,95.14l.7-2.21-3.57-2.6-1.9,1.33-2-1.49,11-7.39,1.54,1.12L582.1,96.63Zm2.82-8.8-3.93,2.74,2.5,1.82Z"/></g><g class="ab"><path class="ad" d="M591.53,103.5l-1.64-1.19,2.6-7.45-6.3,4.75-1.64-1.19,4.65-12,2,1.49-3.06,7.47,6.45-5,1.47,1.07-2.78,7.68,6.18-5.2,2,1.49Z"/></g><g class="ab"><path class="ad" d="M601,110.38l.71-2.21-3.58-2.6-1.9,1.33-2.05-1.49,11-7.39,1.54,1.12L603,111.87Zm2.82-8.8-3.93,2.73,2.5,1.83Z"/><path class="ad" d="M609.6,116.66l1-5.44-1.41-1-2.92,4-2-1.43,7.33-10.06,3.94,2.87a3.76,3.76,0,0,1,1,5.45,3.34,3.34,0,0,1-3.76,1.31l-.92,6Zm4.52-9.41-1.85-1.35-1.93,2.66,1.85,1.34a1.64,1.64,0,1,0,1.93-2.65Z"/><path class="ad" d="M613.5,119.5l7.32-10,6.62,4.82L626.17,116l-4.66-3.39L619.79,115l4,2.89-1.28,1.75-4-2.89-1.78,2.44,4.66,3.39-1.27,1.76Z"/><path class="ad" d="M628,130.05l.52-9.07-4.5,6.17-2-1.43,7.32-10,1.75,1.27-.5,9.06,4.49-6.16,2,1.43-7.33,10.06Z"/><path class="ad" d="M632.08,133l7.32-10L646,127.8l-1.27,1.76-4.66-3.4-1.72,2.36,4,2.89-1.28,1.75-4-2.89-1.78,2.44,4.67,3.4-1.28,1.75Z"/></g><g class="ab"><path class="ad" d="M643.33,141.36a5.84,5.84,0,0,1-2.71-4l2.2-.35a4.07,4.07,0,0,0,1.81,2.62c1.16.84,2.1.86,2.69.05a1.39,1.39,0,0,0,.3-1.07,1.78,1.78,0,0,0-.63-1l-1.09-1.06a4.16,4.16,0,0,1-1.34-2.25,3.28,3.28,0,0,1,.72-2.5c1.3-1.79,3.55-2.08,5.72-.5a5.35,5.35,0,0,1,2.4,3.54l-2.14.32A3.41,3.41,0,0,0,649.7,133a1.65,1.65,0,0,0-2.48.14,1.24,1.24,0,0,0-.23.93,2.21,2.21,0,0,0,.65,1.08l1.06,1a4.13,4.13,0,0,1,1.36,2.18,3.51,3.51,0,0,1-.78,2.7C647.86,143,645.43,142.89,643.33,141.36Z"/></g><g class="ab"><path class="ad" d="M651.58,147.37a5.86,5.86,0,0,1-2.7-4l2.19-.34a4.09,4.09,0,0,0,1.82,2.61c1.15.85,2.09.86,2.68.06a1.39,1.39,0,0,0,.31-1.08,1.9,1.9,0,0,0-.63-1l-1.1-1.05a4.28,4.28,0,0,1-1.34-2.26,3.28,3.28,0,0,1,.72-2.5c1.31-1.79,3.55-2.08,5.73-.5a5.33,5.33,0,0,1,2.39,3.54l-2.14.32A3.44,3.44,0,0,0,658,139a1.66,1.66,0,0,0-2.49.14,1.21,1.21,0,0,0-.22.94,2.09,2.09,0,0,0,.64,1.07l1.06,1a4.16,4.16,0,0,1,1.36,2.18,3.51,3.51,0,0,1-.78,2.7C656.11,149,653.69,148.91,651.58,147.37Z"/></g></g><g class="ab"><g class="ab"><path class="ad" d="M740.6,591l-11.79-4,2.62-7.76,2.05.69-1.84,5.46,2.77.94,1.56-4.66,2.06.7L736.46,587l2.87,1,1.84-5.46,2.05.69Z"/><path class="ad" d="M746.33,574l-8.81,2.23,7.23,2.44L744,581l-11.79-4,.69-2.06,8.79-2.23-7.22-2.44.78-2.3,11.79,4Z"/></g><g class="ab"><path class="ad" d="M749.15,561.5a4.67,4.67,0,0,1,.22,3.79A4.56,4.56,0,0,1,747,568a3.62,3.62,0,0,1-2.1.36,16.59,16.59,0,0,1-3-.79,17,17,0,0,1-2.87-1.18,3.54,3.54,0,0,1-1.45-1.56,4.57,4.57,0,0,1-.22-3.61,4.47,4.47,0,0,1,5.27-3.17l-.78,2.32a2.11,2.11,0,0,0-2.43,1.54,2,2,0,0,0,.13,1.68c.4.62.79.9,3.12,1.68s2.82.84,3.52.56a1.93,1.93,0,0,0,1.11-1.27,2.26,2.26,0,0,0-.11-1.86,2.46,2.46,0,0,0-1.4-1.06l-.44-.15-.74,2.17-1.92-.65,1.5-4.45,1.73.58A5,5,0,0,1,749.15,561.5Z"/><path class="ad" d="M753.65,552.25h-2.32l-1.41,4.18,1.84,1.42-.8,2.4L740.61,552l.61-1.8,13.24-.34Zm-9.24,0,3.79,2.94,1-2.93Z"/></g><g class="ab"><path class="ad" d="M756.15,540.72a4.65,4.65,0,0,1,.22,3.78,4.53,4.53,0,0,1-2.36,2.74,3.63,3.63,0,0,1-2.1.37,17.49,17.49,0,0,1-3-.79,16.85,16.85,0,0,1-2.87-1.19,3.55,3.55,0,0,1-1.44-1.55,4.55,4.55,0,0,1-.23-3.62,4.45,4.45,0,0,1,5.27-3.16l-.78,2.31a2.12,2.12,0,0,0-2.43,1.54,2,2,0,0,0,.13,1.69c.4.61.79.89,3.12,1.68s2.82.84,3.52.56a1.93,1.93,0,0,0,1.11-1.27,2.22,2.22,0,0,0-.11-1.86,2.38,2.38,0,0,0-1.4-1.06l-.44-.15-.73,2.17-1.93-.65,1.5-4.46,1.73.58A5,5,0,0,1,756.15,540.72Z"/><path class="ad" d="M758.5,537.86l-11.79-4,2.61-7.77,2.06.69-1.84,5.47,2.76.93,1.57-4.65,2,.69-1.56,4.65,2.86,1,1.84-5.47,2.05.69Z"/><path class="ad" d="M764.7,519.46l-6.88-2.31,3.72,3.76-.53,1.55-5.23.76,6.87,2.32-.78,2.3-11.79-4,.77-2.27,7.41-.93-5.34-5.21.76-2.27,11.79,4Z"/><path class="ad" d="M766.4,514.41l-11.79-4,2.61-7.77,2.06.7-1.84,5.46,2.76.93,1.57-4.65,2.05.69-1.57,4.65,2.87,1L767,506l2,.7Z"/><path class="ad" d="M772.12,497.42l-8.81,2.23,7.24,2.44-.78,2.3-11.79-4,.69-2.05,8.79-2.24-7.21-2.43.77-2.3,11.79,4Z"/><path class="ad" d="M765.52,484.83l9.73,3.28-.77,2.31-9.74-3.28-1,3.08-2.06-.69,2.85-8.47,2,.69Z"/></g></g><g class="ab"><g class="ab"><path class="ad" d="M354,796.26a4.56,4.56,0,0,1-3.33-1.39,3.63,3.63,0,0,1-1-1.88,17.39,17.39,0,0,1-.18-3.08,16.22,16.22,0,0,1,.24-3.08,3.53,3.53,0,0,1,1-1.86,4.54,4.54,0,0,1,3.36-1.33,4.37,4.37,0,0,1,4.52,4l-2.45,0a2,2,0,0,0-2.08-1.78,1.87,1.87,0,0,0-1.55.63c-.51.53-.62,1.09-.65,3.49s.08,3,.58,3.51a1.92,1.92,0,0,0,1.54.66,2,2,0,0,0,2.11-1.74l2.46,0A4.39,4.39,0,0,1,354,796.26Z"/></g><g class="ab"><path class="ad" d="M367.59,795a4.83,4.83,0,0,1-6.71-.07c-1.24-1.27-1.19-2.82-1.17-5s0-3.69,1.27-4.94a4.83,4.83,0,0,1,6.71.07c1.24,1.27,1.21,2.82,1.19,5S368.86,793.8,367.59,795Zm-1.71-8.45a2.16,2.16,0,0,0-3.12,0c-.48.51-.6,1.09-.63,3.48s.09,3,.56,3.48a2,2,0,0,0,1.56.68,2,2,0,0,0,1.56-.64c.47-.52.62-1.1.64-3.48S366.34,787.11,365.88,786.59Z"/><path class="ad" d="M378.63,796.4l-4.84-7.66-.08,7.61-2.42,0,.13-12.41,2.16,0,4.83,7.65.08-7.6,2.42,0-.12,12.4Z"/><path class="ad" d="M388.2,796.5l-1.81,0-4-12.45,2.5,0,2.41,8.11,2.58-8.06,2.52,0Z"/><path class="ad" d="M393.81,796.55l.13-12.4,8.17.08,0,2.16-5.75-.06,0,2.91,4.89,0,0,2.16-4.89-.05,0,3,5.75.05,0,2.17Z"/><path class="ad" d="M411,796.73l-2.38-5h-1.74l-.05,4.94-2.42,0,.12-12.41,4.86,0a3.76,3.76,0,0,1,4,3.84,3.36,3.36,0,0,1-2.3,3.24l2.72,5.37Zm-1.78-10.27-2.29,0,0,3.27,2.28,0a1.64,1.64,0,1,0,0-3.28Z"/><path class="ad" d="M419.17,796.91a5.82,5.82,0,0,1-4.51-1.68l1.58-1.55a4.07,4.07,0,0,0,3,1.07c1.43,0,2.2-.52,2.21-1.51a1.43,1.43,0,0,0-.37-1,1.85,1.85,0,0,0-1.1-.44l-1.49-.23a4.18,4.18,0,0,1-2.4-1,3.3,3.3,0,0,1-.86-2.45c0-2.21,1.67-3.75,4.36-3.72a5.32,5.32,0,0,1,4,1.49l-1.55,1.5a3.45,3.45,0,0,0-2.53-.88c-1.29,0-1.93.69-1.94,1.55a1.21,1.21,0,0,0,.36.89,2.16,2.16,0,0,0,1.14.5l1.47.22a4.14,4.14,0,0,1,2.36,1,3.52,3.52,0,0,1,.93,2.64C423.79,795.6,421.77,796.94,419.17,796.91Z"/><path class="ad" d="M426.06,796.88l.12-12.41,2.43,0-.13,12.4Z"/><path class="ad" d="M438.9,795.75a4.81,4.81,0,0,1-6.71-.07c-1.24-1.26-1.19-2.81-1.17-5s0-3.69,1.27-4.93a4.82,4.82,0,0,1,6.71.06c1.24,1.27,1.21,2.82,1.18,5S440.17,794.51,438.9,795.75Zm-1.71-8.45a2,2,0,0,0-1.55-.68,2.06,2.06,0,0,0-1.57.65c-.48.52-.61,1.09-.63,3.48s.09,3,.56,3.49a2.07,2.07,0,0,0,1.56.68,2,2,0,0,0,1.56-.65c.47-.52.62-1.09.64-3.48S437.65,787.83,437.19,787.3Z"/><path class="ad" d="M449.94,797.12l-4.84-7.67-.08,7.62-2.42,0,.12-12.4,2.16,0,4.84,7.64.08-7.59,2.42,0-.12,12.41Z"/></g></g><g class="ab"><g class="ab"><path class="ad" d="M28,503.36l11.79-3.85.75,2.3L30.77,505l1.75,5.35-2.05.67Z"/></g><g class="ab"><path class="ad" d="M34.46,519.2a4.82,4.82,0,0,1-2.08-6.38c.8-1.58,2.29-2,4.32-2.7s3.5-1.17,5.09-.37a4.83,4.83,0,0,1,2.08,6.38c-.81,1.58-2.29,2-4.32,2.71S36,520,34.46,519.2Zm7.46-4.32a2,2,0,0,0,.15-1.68A2.08,2.08,0,0,0,41,511.91c-.64-.29-1.23-.22-3.5.52s-2.77,1-3.13,1.64a2.1,2.1,0,0,0-.14,1.7A2,2,0,0,0,35.29,517c.65.28,1.24.24,3.5-.5S41.57,515.48,41.92,514.88Z"/></g><g class="ab"><path class="ad" d="M40.67,525.87l-4.84,1.58-.75-2.29,4.84-1.57,5.8-5.82.82,2.5-4,3.76,5.47.61.81,2.51Z"/></g><g class="ab"><path class="ad" d="M39.42,538.46l1.86-1.38-1.36-4.19-2.32,0-.79-2.4,13.2.44.59,1.81-10.39,8.15ZM46.84,533l-4.77-.09,1,2.93Z"/></g><g class="ab"><path class="ad" d="M40.68,542.32l11.8-3.85.75,2.3L43.49,544l1.74,5.35-2,.67Z"/></g><g class="ab"><path class="ad" d="M54.57,551.84,44.83,555l-.75-2.3,9.74-3.18-1-3.08,2.06-.67,2.76,8.46-2.06.67Z"/><path class="ad" d="M52.75,562.9l-4.84,1.58-.74-2.29L52,560.61l5.8-5.82.82,2.51-4,3.75,5.46.62.81,2.5Z"/></g></g><g class="ab"><g class="ab"><path class="ad" d="M154.23,142.4,152.36,141l-3.62,2.56.66,2.23-2.07,1.47-3.49-12.79,1.55-1.1,10.92,7.54Zm-7.44-5.5,1.33,4.61,2.53-1.78Z"/></g><g class="ab"><path class="ad" d="M163.24,134.57a4.55,4.55,0,0,1-2,2.87l-3.68,2.6-7.19-10.17,3.67-2.6a4.56,4.56,0,0,1,3.37-.93c2,.34,2.83,1.82,3.91,3.35S163.57,132.62,163.24,134.57Zm-6.2-5.82a2.18,2.18,0,0,0-1.93.42l-1.5,1.07,4.69,6.63,1.5-1.07a2.17,2.17,0,0,0,1-1.68c0-.72-.41-1.48-1.5-3S157.73,129,157,128.75Z"/><path class="ad" d="M170.41,131,168.93,132l-10.56-7.8,2.06-1.46,6.73,5.19-2.64-8.08,2.07-1.46Z"/></g><g class="ab"><path class="ad" d="M180.44,122.32a4.83,4.83,0,0,1-5.5,3.89c-1.76-.3-2.63-1.59-3.87-3.35s-2.18-3-1.87-4.76a4.81,4.81,0,0,1,5.5-3.89c1.75.3,2.64,1.58,3.88,3.33S180.74,120.56,180.44,122.32Zm-6.37-5.87a2,2,0,0,0-1.65.35,2,2,0,0,0-.9,1.45c-.09.71.15,1.25,1.53,3.21s1.82,2.36,2.51,2.51a2,2,0,0,0,1.67-.37,2,2,0,0,0,.89-1.44c.08-.7-.14-1.25-1.52-3.21S174.76,116.6,174.07,116.45Z"/></g><g class="ab"><path class="ad" d="M187.67,118.88a4.6,4.6,0,0,1-3.53.83,3.65,3.65,0,0,1-1.91-.95,16.06,16.06,0,0,1-2-2.41,16.39,16.39,0,0,1-1.62-2.65,3.51,3.51,0,0,1-.25-2.11,4.53,4.53,0,0,1,1.95-3.06,4.4,4.4,0,0,1,6,.57l-2,1.43a2.06,2.06,0,0,0-2.73-.24,1.93,1.93,0,0,0-.9,1.43c-.1.74.14,1.26,1.53,3.23s1.81,2.37,2.53,2.52a2,2,0,0,0,1.65-.37,2.06,2.06,0,0,0,.69-2.66l2-1.42A4.41,4.41,0,0,1,187.67,118.88Z"/></g><g class="ab"><path class="ad" d="M198.7,111l-1.87-1.38-3.62,2.56.66,2.23-2.07,1.47L188.31,103l1.55-1.11,10.91,7.55Zm-7.44-5.5,1.33,4.61,2.53-1.79Z"/></g><g class="ab"><path class="ad" d="M205.35,106.37a4.56,4.56,0,0,1-3.53.83,3.56,3.56,0,0,1-1.91-.94,17.22,17.22,0,0,1-2-2.41,17.91,17.91,0,0,1-1.61-2.65,3.63,3.63,0,0,1-.26-2.12,4.56,4.56,0,0,1,2-3,4.39,4.39,0,0,1,6,.57L202,98a2,2,0,0,0-2.73-.23,1.91,1.91,0,0,0-.9,1.43c-.1.73.14,1.25,1.53,3.22s1.81,2.37,2.53,2.52a1.9,1.9,0,0,0,1.65-.37,2.06,2.06,0,0,0,.69-2.65l2-1.43A4.4,4.4,0,0,1,205.35,106.37Z"/></g><g class="ab"><path class="ad" d="M211.53,95.61l2.95,4.17-2,1.4L209.56,97l-7.31-3.84,2.16-1.53,4.8,2.76-1-5.42,2.16-1.53Z"/></g></g></svg>